<mxfile host="app.diagrams.net" agent="Mozilla/5.0 (Windows NT 10.0; Win64; x64) AppleWebKit/537.36 (KHTML, like Gecko) Chrome/127.0.0.0 Safari/537.36" version="24.7.6" pages="4">
  <diagram name="Page-1" id="lO4TUu4KP0oCaUIwZlss">
    <mxGraphModel dx="1313" dy="696" grid="1" gridSize="10" guides="1" tooltips="1" connect="1" arrows="1" fold="1" page="1" pageScale="1" pageWidth="850" pageHeight="1100" math="0" shadow="0">
      <root>
        <mxCell id="0" />
        <mxCell id="1" parent="0" />
        <mxCell id="JVkcqGGStXwB_NZOb1-i-1" value="A" style="whiteSpace=wrap;html=1;aspect=fixed;" parent="1" vertex="1">
          <mxGeometry x="80" y="260" width="100" height="100" as="geometry" />
        </mxCell>
        <mxCell id="JVkcqGGStXwB_NZOb1-i-2" value="Q" style="whiteSpace=wrap;html=1;aspect=fixed;" parent="1" vertex="1">
          <mxGeometry x="147" y="490" width="100" height="100" as="geometry" />
        </mxCell>
        <mxCell id="JVkcqGGStXwB_NZOb1-i-3" value="M" style="whiteSpace=wrap;html=1;aspect=fixed;" parent="1" vertex="1">
          <mxGeometry x="80" y="630" width="100" height="100" as="geometry" />
        </mxCell>
        <mxCell id="JVkcqGGStXwB_NZOb1-i-4" value="Controller" style="rounded=0;whiteSpace=wrap;html=1;" parent="1" vertex="1">
          <mxGeometry x="230" y="790" width="600" height="60" as="geometry" />
        </mxCell>
        <mxCell id="JVkcqGGStXwB_NZOb1-i-7" value="" style="endArrow=none;html=1;rounded=0;exitX=0;exitY=0.25;exitDx=0;exitDy=0;" parent="1" source="JVkcqGGStXwB_NZOb1-i-4" edge="1">
          <mxGeometry width="50" height="50" relative="1" as="geometry">
            <mxPoint x="560" y="590" as="sourcePoint" />
            <mxPoint x="30" y="240" as="targetPoint" />
            <Array as="points">
              <mxPoint x="30" y="805" />
            </Array>
          </mxGeometry>
        </mxCell>
        <mxCell id="JVkcqGGStXwB_NZOb1-i-9" value="Shift" style="whiteSpace=wrap;html=1;aspect=fixed;" parent="1" vertex="1">
          <mxGeometry x="344" y="420" width="80" height="80" as="geometry" />
        </mxCell>
        <mxCell id="JVkcqGGStXwB_NZOb1-i-10" value="" style="endArrow=classic;html=1;rounded=0;exitX=1;exitY=0.5;exitDx=0;exitDy=0;entryX=0;entryY=0.25;entryDx=0;entryDy=0;" parent="1" source="JVkcqGGStXwB_NZOb1-i-1" target="JVkcqGGStXwB_NZOb1-i-9" edge="1">
          <mxGeometry width="50" height="50" relative="1" as="geometry">
            <mxPoint x="540" y="570" as="sourcePoint" />
            <mxPoint x="590" y="520" as="targetPoint" />
            <Array as="points">
              <mxPoint x="280" y="310" />
              <mxPoint x="280" y="440" />
            </Array>
          </mxGeometry>
        </mxCell>
        <mxCell id="JVkcqGGStXwB_NZOb1-i-12" value="" style="endArrow=classic;html=1;rounded=0;entryX=0;entryY=0.75;entryDx=0;entryDy=0;" parent="1" target="JVkcqGGStXwB_NZOb1-i-9" edge="1">
          <mxGeometry width="50" height="50" relative="1" as="geometry">
            <mxPoint x="247" y="560" as="sourcePoint" />
            <mxPoint x="590" y="520" as="targetPoint" />
            <Array as="points">
              <mxPoint x="300" y="560" />
              <mxPoint x="300" y="480" />
            </Array>
          </mxGeometry>
        </mxCell>
        <mxCell id="JVkcqGGStXwB_NZOb1-i-15" value="" style="endArrow=classic;html=1;rounded=0;entryX=0;entryY=0.75;entryDx=0;entryDy=0;" parent="1" target="JVkcqGGStXwB_NZOb1-i-1" edge="1">
          <mxGeometry width="50" height="50" relative="1" as="geometry">
            <mxPoint x="30" y="335" as="sourcePoint" />
            <mxPoint x="80" y="370" as="targetPoint" />
          </mxGeometry>
        </mxCell>
        <mxCell id="JVkcqGGStXwB_NZOb1-i-16" value="" style="endArrow=classic;html=1;rounded=0;" parent="1" edge="1">
          <mxGeometry width="50" height="50" relative="1" as="geometry">
            <mxPoint x="30" y="570" as="sourcePoint" />
            <mxPoint x="148" y="570" as="targetPoint" />
          </mxGeometry>
        </mxCell>
        <mxCell id="JVkcqGGStXwB_NZOb1-i-17" value="" style="endArrow=classic;html=1;rounded=0;entryX=0;entryY=0.75;entryDx=0;entryDy=0;" parent="1" edge="1">
          <mxGeometry width="50" height="50" relative="1" as="geometry">
            <mxPoint x="30" y="720" as="sourcePoint" />
            <mxPoint x="80" y="720" as="targetPoint" />
          </mxGeometry>
        </mxCell>
        <mxCell id="JVkcqGGStXwB_NZOb1-i-18" value="enable_resgisters" style="text;html=1;align=center;verticalAlign=middle;whiteSpace=wrap;rounded=0;" parent="1" vertex="1">
          <mxGeometry x="150" y="780" width="60" height="30" as="geometry" />
        </mxCell>
        <mxCell id="JVkcqGGStXwB_NZOb1-i-22" value="32 bit" style="text;strokeColor=none;fillColor=none;align=left;verticalAlign=middle;spacingLeft=4;spacingRight=4;overflow=hidden;points=[[0,0.5],[1,0.5]];portConstraint=eastwest;rotatable=0;whiteSpace=wrap;html=1;" parent="1" vertex="1">
          <mxGeometry x="210" y="270" width="40" height="30" as="geometry" />
        </mxCell>
        <mxCell id="JVkcqGGStXwB_NZOb1-i-23" value="32 bit" style="text;strokeColor=none;fillColor=none;align=left;verticalAlign=middle;spacingLeft=4;spacingRight=4;overflow=hidden;points=[[0,0.5],[1,0.5]];portConstraint=eastwest;rotatable=0;whiteSpace=wrap;html=1;" parent="1" vertex="1">
          <mxGeometry x="250" y="520" width="40" height="30" as="geometry" />
        </mxCell>
        <mxCell id="JVkcqGGStXwB_NZOb1-i-25" value="" style="endArrow=classic;html=1;rounded=0;exitX=1;exitY=0.5;exitDx=0;exitDy=0;entryX=0.042;entryY=0.343;entryDx=0;entryDy=0;entryPerimeter=0;" parent="1" source="JVkcqGGStXwB_NZOb1-i-9" target="JVkcqGGStXwB_NZOb1-i-29" edge="1">
          <mxGeometry width="50" height="50" relative="1" as="geometry">
            <mxPoint x="464" y="470" as="sourcePoint" />
            <mxPoint x="514" y="460" as="targetPoint" />
          </mxGeometry>
        </mxCell>
        <mxCell id="JVkcqGGStXwB_NZOb1-i-26" value="" style="endArrow=none;html=1;rounded=0;" parent="1" edge="1">
          <mxGeometry width="50" height="50" relative="1" as="geometry">
            <mxPoint x="439" y="474" as="sourcePoint" />
            <mxPoint x="459" y="449" as="targetPoint" />
          </mxGeometry>
        </mxCell>
        <mxCell id="JVkcqGGStXwB_NZOb1-i-27" value="" style="endArrow=none;html=1;rounded=0;" parent="1" edge="1">
          <mxGeometry width="50" height="50" relative="1" as="geometry">
            <mxPoint x="200" y="322.5" as="sourcePoint" />
            <mxPoint x="220" y="297.5" as="targetPoint" />
          </mxGeometry>
        </mxCell>
        <mxCell id="JVkcqGGStXwB_NZOb1-i-28" value="" style="endArrow=none;html=1;rounded=0;" parent="1" edge="1">
          <mxGeometry width="50" height="50" relative="1" as="geometry">
            <mxPoint x="262" y="575" as="sourcePoint" />
            <mxPoint x="282" y="550" as="targetPoint" />
          </mxGeometry>
        </mxCell>
        <mxCell id="JVkcqGGStXwB_NZOb1-i-29" value="SUB" style="ellipse;whiteSpace=wrap;html=1;aspect=fixed;" parent="1" vertex="1">
          <mxGeometry x="514" y="439" width="60" height="60" as="geometry" />
        </mxCell>
        <mxCell id="JVkcqGGStXwB_NZOb1-i-30" value="32 bit" style="text;strokeColor=none;fillColor=none;align=left;verticalAlign=middle;spacingLeft=4;spacingRight=4;overflow=hidden;points=[[0,0.5],[1,0.5]];portConstraint=eastwest;rotatable=0;whiteSpace=wrap;html=1;" parent="1" vertex="1">
          <mxGeometry x="449" y="410" width="40" height="30" as="geometry" />
        </mxCell>
        <mxCell id="JVkcqGGStXwB_NZOb1-i-31" value="" style="endArrow=classic;html=1;rounded=0;exitX=1;exitY=0.5;exitDx=0;exitDy=0;entryX=0;entryY=1;entryDx=0;entryDy=0;" parent="1" source="JVkcqGGStXwB_NZOb1-i-3" target="JVkcqGGStXwB_NZOb1-i-29" edge="1">
          <mxGeometry width="50" height="50" relative="1" as="geometry">
            <mxPoint x="430" y="560" as="sourcePoint" />
            <mxPoint x="440" y="480" as="targetPoint" />
            <Array as="points">
              <mxPoint x="440" y="680" />
              <mxPoint x="440" y="490" />
            </Array>
          </mxGeometry>
        </mxCell>
        <mxCell id="JVkcqGGStXwB_NZOb1-i-32" value="" style="endArrow=none;html=1;rounded=0;" parent="1" edge="1">
          <mxGeometry width="50" height="50" relative="1" as="geometry">
            <mxPoint x="200" y="692.5" as="sourcePoint" />
            <mxPoint x="220" y="667.5" as="targetPoint" />
          </mxGeometry>
        </mxCell>
        <mxCell id="JVkcqGGStXwB_NZOb1-i-33" value="32 bit" style="text;strokeColor=none;fillColor=none;align=left;verticalAlign=middle;spacingLeft=4;spacingRight=4;overflow=hidden;points=[[0,0.5],[1,0.5]];portConstraint=eastwest;rotatable=0;whiteSpace=wrap;html=1;" parent="1" vertex="1">
          <mxGeometry x="200" y="640" width="40" height="30" as="geometry" />
        </mxCell>
        <mxCell id="e6jP10dAVwXw9fxKo5fb-1" value="" style="shape=trapezoid;perimeter=trapezoidPerimeter;whiteSpace=wrap;html=1;fixedSize=1;rotation=90;size=13.269999999999982;" parent="1" vertex="1">
          <mxGeometry x="740" y="443.9" width="90" height="32.2" as="geometry" />
        </mxCell>
        <mxCell id="e6jP10dAVwXw9fxKo5fb-2" value="" style="endArrow=classic;html=1;rounded=0;entryX=1;entryY=0.5;entryDx=0;entryDy=0;" parent="1" target="e6jP10dAVwXw9fxKo5fb-1" edge="1">
          <mxGeometry width="50" height="50" relative="1" as="geometry">
            <mxPoint x="785" y="550" as="sourcePoint" />
            <mxPoint x="674" y="580" as="targetPoint" />
            <Array as="points">
              <mxPoint x="785" y="520" />
            </Array>
          </mxGeometry>
        </mxCell>
        <mxCell id="e6jP10dAVwXw9fxKo5fb-3" value="Selec A" style="text;html=1;align=center;verticalAlign=middle;whiteSpace=wrap;rounded=0;" parent="1" vertex="1">
          <mxGeometry x="755" y="560" width="60" height="40" as="geometry" />
        </mxCell>
        <mxCell id="e6jP10dAVwXw9fxKo5fb-5" value="" style="endArrow=classic;html=1;rounded=0;exitX=1;exitY=0.25;exitDx=0;exitDy=0;entryX=0.14;entryY=1.004;entryDx=0;entryDy=0;entryPerimeter=0;" parent="1" source="JVkcqGGStXwB_NZOb1-i-9" target="e6jP10dAVwXw9fxKo5fb-1" edge="1">
          <mxGeometry width="50" height="50" relative="1" as="geometry">
            <mxPoint x="514" y="410" as="sourcePoint" />
            <mxPoint x="564" y="360" as="targetPoint" />
            <Array as="points">
              <mxPoint x="444" y="440" />
              <mxPoint x="444" y="380" />
              <mxPoint x="544" y="380" />
              <mxPoint x="624" y="380" />
              <mxPoint x="624" y="428" />
            </Array>
          </mxGeometry>
        </mxCell>
        <mxCell id="e6jP10dAVwXw9fxKo5fb-6" value="" style="endArrow=classic;html=1;rounded=0;exitX=0.5;exitY=0;exitDx=0;exitDy=0;entryX=0.412;entryY=-0.022;entryDx=0;entryDy=0;entryPerimeter=0;" parent="1" source="e6jP10dAVwXw9fxKo5fb-1" target="JVkcqGGStXwB_NZOb1-i-1" edge="1">
          <mxGeometry width="50" height="50" relative="1" as="geometry">
            <mxPoint x="694" y="550" as="sourcePoint" />
            <mxPoint x="100" y="200" as="targetPoint" />
            <Array as="points">
              <mxPoint x="840" y="460" />
              <mxPoint x="840" y="200" />
              <mxPoint x="121" y="200" />
            </Array>
          </mxGeometry>
        </mxCell>
        <mxCell id="xJeklbKug6ujCWlpbTNu-2" value="=" style="ellipse;whiteSpace=wrap;html=1;aspect=fixed;" parent="1" vertex="1">
          <mxGeometry x="344" y="30" width="60" height="60" as="geometry" />
        </mxCell>
        <mxCell id="oiRGfsnjQpi-Wwco6OzQ-1" value="Counter" style="whiteSpace=wrap;html=1;aspect=fixed;" parent="1" vertex="1">
          <mxGeometry x="190" y="40" width="80" height="80" as="geometry" />
        </mxCell>
        <mxCell id="oiRGfsnjQpi-Wwco6OzQ-2" value="" style="endArrow=classic;html=1;rounded=0;exitX=1;exitY=0.25;exitDx=0;exitDy=0;entryX=0;entryY=0.5;entryDx=0;entryDy=0;" parent="1" source="oiRGfsnjQpi-Wwco6OzQ-1" target="xJeklbKug6ujCWlpbTNu-2" edge="1">
          <mxGeometry width="50" height="50" relative="1" as="geometry">
            <mxPoint x="330" y="160" as="sourcePoint" />
            <mxPoint x="380" y="110" as="targetPoint" />
          </mxGeometry>
        </mxCell>
        <mxCell id="oiRGfsnjQpi-Wwco6OzQ-3" value="" style="endArrow=classic;html=1;rounded=0;entryX=0;entryY=0.75;entryDx=0;entryDy=0;" parent="1" target="oiRGfsnjQpi-Wwco6OzQ-1" edge="1">
          <mxGeometry width="50" height="50" relative="1" as="geometry">
            <mxPoint x="150" y="100" as="sourcePoint" />
            <mxPoint x="140" y="110" as="targetPoint" />
          </mxGeometry>
        </mxCell>
        <mxCell id="oiRGfsnjQpi-Wwco6OzQ-4" value="enable_count" style="text;strokeColor=none;fillColor=none;align=left;verticalAlign=middle;spacingLeft=4;spacingRight=4;overflow=hidden;points=[[0,0.5],[1,0.5]];portConstraint=eastwest;rotatable=0;whiteSpace=wrap;html=1;" parent="1" vertex="1">
          <mxGeometry x="61" y="84" width="100" height="30" as="geometry" />
        </mxCell>
        <mxCell id="oiRGfsnjQpi-Wwco6OzQ-5" value="" style="endArrow=classic;html=1;rounded=0;entryX=0.5;entryY=1;entryDx=0;entryDy=0;" parent="1" target="xJeklbKug6ujCWlpbTNu-2" edge="1">
          <mxGeometry width="50" height="50" relative="1" as="geometry">
            <mxPoint x="374" y="130" as="sourcePoint" />
            <mxPoint x="410" y="110" as="targetPoint" />
          </mxGeometry>
        </mxCell>
        <mxCell id="oiRGfsnjQpi-Wwco6OzQ-6" value="Width" style="text;strokeColor=none;fillColor=none;align=left;verticalAlign=middle;spacingLeft=4;spacingRight=4;overflow=hidden;points=[[0,0.5],[1,0.5]];portConstraint=eastwest;rotatable=0;whiteSpace=wrap;html=1;" parent="1" vertex="1">
          <mxGeometry x="354" y="130" width="40" height="30" as="geometry" />
        </mxCell>
        <mxCell id="oiRGfsnjQpi-Wwco6OzQ-7" value="" style="endArrow=classic;html=1;rounded=0;exitX=1;exitY=0.5;exitDx=0;exitDy=0;" parent="1" source="xJeklbKug6ujCWlpbTNu-2" edge="1">
          <mxGeometry width="50" height="50" relative="1" as="geometry">
            <mxPoint x="464" y="134" as="sourcePoint" />
            <mxPoint x="490" y="60" as="targetPoint" />
          </mxGeometry>
        </mxCell>
        <mxCell id="oiRGfsnjQpi-Wwco6OzQ-8" value="Done" style="text;strokeColor=none;fillColor=none;align=left;verticalAlign=middle;spacingLeft=4;spacingRight=4;overflow=hidden;points=[[0,0.5],[1,0.5]];portConstraint=eastwest;rotatable=0;whiteSpace=wrap;html=1;" parent="1" vertex="1">
          <mxGeometry x="514" y="45" width="41" height="30" as="geometry" />
        </mxCell>
        <mxCell id="oiRGfsnjQpi-Wwco6OzQ-9" value="" style="endArrow=classic;html=1;rounded=0;exitX=0.141;exitY=-0.032;exitDx=0;exitDy=0;exitPerimeter=0;entryX=0.271;entryY=0.974;entryDx=0;entryDy=0;entryPerimeter=0;" parent="1" target="oiRGfsnjQpi-Wwco6OzQ-11" edge="1">
          <mxGeometry width="50" height="50" relative="1" as="geometry">
            <mxPoint x="314.6" y="790.08" as="sourcePoint" />
            <mxPoint x="312.95000000000005" y="739.51" as="targetPoint" />
          </mxGeometry>
        </mxCell>
        <mxCell id="oiRGfsnjQpi-Wwco6OzQ-10" value="" style="endArrow=classic;html=1;rounded=0;entryX=0.138;entryY=-0.008;entryDx=0;entryDy=0;entryPerimeter=0;" parent="1" edge="1">
          <mxGeometry width="50" height="50" relative="1" as="geometry">
            <mxPoint x="404" y="740" as="sourcePoint" />
            <mxPoint x="404" y="790" as="targetPoint" />
          </mxGeometry>
        </mxCell>
        <mxCell id="oiRGfsnjQpi-Wwco6OzQ-11" value="enable_count" style="text;strokeColor=none;fillColor=none;align=left;verticalAlign=middle;spacingLeft=4;spacingRight=4;overflow=hidden;points=[[0,0.5],[1,0.5]];portConstraint=eastwest;rotatable=0;whiteSpace=wrap;html=1;" parent="1" vertex="1">
          <mxGeometry x="290" y="710" width="90" height="30" as="geometry" />
        </mxCell>
        <mxCell id="oiRGfsnjQpi-Wwco6OzQ-12" value="Done" style="text;strokeColor=none;fillColor=none;align=left;verticalAlign=middle;spacingLeft=4;spacingRight=4;overflow=hidden;points=[[0,0.5],[1,0.5]];portConstraint=eastwest;rotatable=0;whiteSpace=wrap;html=1;" parent="1" vertex="1">
          <mxGeometry x="380" y="710" width="50" height="30" as="geometry" />
        </mxCell>
        <mxCell id="oiRGfsnjQpi-Wwco6OzQ-14" value="" style="endArrow=classic;html=1;rounded=0;entryX=0;entryY=0.5;entryDx=0;entryDy=0;" parent="1" target="JVkcqGGStXwB_NZOb1-i-1" edge="1">
          <mxGeometry width="50" height="50" relative="1" as="geometry">
            <mxPoint x="50" y="310" as="sourcePoint" />
            <mxPoint x="61" y="285" as="targetPoint" />
          </mxGeometry>
        </mxCell>
        <mxCell id="oiRGfsnjQpi-Wwco6OzQ-15" value="Component" style="ellipse;whiteSpace=wrap;html=1;aspect=fixed;" parent="1" vertex="1">
          <mxGeometry x="504" y="580" width="80" height="80" as="geometry" />
        </mxCell>
        <mxCell id="oiRGfsnjQpi-Wwco6OzQ-17" value="" style="endArrow=classic;html=1;rounded=0;exitX=1;exitY=0.5;exitDx=0;exitDy=0;entryX=0.618;entryY=1.016;entryDx=0;entryDy=0;entryPerimeter=0;" parent="1" source="JVkcqGGStXwB_NZOb1-i-29" target="e6jP10dAVwXw9fxKo5fb-1" edge="1">
          <mxGeometry width="50" height="50" relative="1" as="geometry">
            <mxPoint x="580" y="610" as="sourcePoint" />
            <mxPoint x="630" y="560" as="targetPoint" />
          </mxGeometry>
        </mxCell>
        <mxCell id="oiRGfsnjQpi-Wwco6OzQ-18" value="" style="endArrow=classic;html=1;rounded=0;exitX=0.5;exitY=1;exitDx=0;exitDy=0;entryX=0.5;entryY=0;entryDx=0;entryDy=0;" parent="1" source="JVkcqGGStXwB_NZOb1-i-29" target="oiRGfsnjQpi-Wwco6OzQ-15" edge="1">
          <mxGeometry width="50" height="50" relative="1" as="geometry">
            <mxPoint x="690" y="610" as="sourcePoint" />
            <mxPoint x="740" y="560" as="targetPoint" />
          </mxGeometry>
        </mxCell>
        <mxCell id="oiRGfsnjQpi-Wwco6OzQ-20" value="" style="endArrow=classic;html=1;rounded=0;exitX=0.5;exitY=1;exitDx=0;exitDy=0;" parent="1" source="oiRGfsnjQpi-Wwco6OzQ-15" edge="1">
          <mxGeometry width="50" height="50" relative="1" as="geometry">
            <mxPoint x="640" y="670" as="sourcePoint" />
            <mxPoint x="544" y="790" as="targetPoint" />
          </mxGeometry>
        </mxCell>
        <mxCell id="oiRGfsnjQpi-Wwco6OzQ-21" value="Msb_A" style="text;html=1;align=center;verticalAlign=middle;whiteSpace=wrap;rounded=0;" parent="1" vertex="1">
          <mxGeometry x="544" y="684" width="60" height="30" as="geometry" />
        </mxCell>
        <mxCell id="oiRGfsnjQpi-Wwco6OzQ-22" value="" style="endArrow=none;html=1;rounded=0;" parent="1" edge="1">
          <mxGeometry width="50" height="50" relative="1" as="geometry">
            <mxPoint x="584" y="481.5" as="sourcePoint" />
            <mxPoint x="604" y="456.5" as="targetPoint" />
          </mxGeometry>
        </mxCell>
        <mxCell id="oiRGfsnjQpi-Wwco6OzQ-23" value="32 bit" style="text;strokeColor=none;fillColor=none;align=left;verticalAlign=middle;spacingLeft=4;spacingRight=4;overflow=hidden;points=[[0,0.5],[1,0.5]];portConstraint=eastwest;rotatable=0;whiteSpace=wrap;html=1;" parent="1" vertex="1">
          <mxGeometry x="584" y="430" width="40" height="30" as="geometry" />
        </mxCell>
        <mxCell id="oiRGfsnjQpi-Wwco6OzQ-24" value="1 bit" style="text;strokeColor=none;fillColor=none;align=left;verticalAlign=middle;spacingLeft=4;spacingRight=4;overflow=hidden;points=[[0,0.5],[1,0.5]];portConstraint=eastwest;rotatable=0;whiteSpace=wrap;html=1;" parent="1" vertex="1">
          <mxGeometry x="544" y="504" width="40" height="30" as="geometry" />
        </mxCell>
        <mxCell id="oiRGfsnjQpi-Wwco6OzQ-25" value="" style="endArrow=none;html=1;rounded=0;" parent="1" edge="1">
          <mxGeometry width="50" height="50" relative="1" as="geometry">
            <mxPoint x="535" y="553" as="sourcePoint" />
            <mxPoint x="555" y="528" as="targetPoint" />
          </mxGeometry>
        </mxCell>
        <mxCell id="oiRGfsnjQpi-Wwco6OzQ-29" value="" style="endArrow=classic;html=1;rounded=0;exitX=0.5;exitY=0;exitDx=0;exitDy=0;entryX=0;entryY=0.25;entryDx=0;entryDy=0;" parent="1" target="JVkcqGGStXwB_NZOb1-i-2" edge="1">
          <mxGeometry width="50" height="50" relative="1" as="geometry">
            <mxPoint x="102.09999999999991" y="441.1" as="sourcePoint" />
            <mxPoint x="370" y="580" as="targetPoint" />
            <Array as="points">
              <mxPoint x="120" y="440" />
              <mxPoint x="120" y="515" />
            </Array>
          </mxGeometry>
        </mxCell>
        <mxCell id="oiRGfsnjQpi-Wwco6OzQ-31" value="Mux" style="shadow=0;dashed=0;align=center;html=1;strokeWidth=1;shape=mxgraph.electrical.abstract.mux2;whiteSpace=wrap;" parent="1" vertex="1">
          <mxGeometry x="61" y="405" width="50" height="80" as="geometry" />
        </mxCell>
        <mxCell id="oiRGfsnjQpi-Wwco6OzQ-32" value="Selec A" style="text;html=1;align=center;verticalAlign=middle;whiteSpace=wrap;rounded=0;" parent="1" vertex="1">
          <mxGeometry x="61" y="485" width="60" height="30" as="geometry" />
        </mxCell>
        <mxCell id="lPI43xpBYYmyzlCxW5A--1" value="" style="endArrow=classic;html=1;rounded=0;entryX=0.527;entryY=0.047;entryDx=0;entryDy=0;entryPerimeter=0;" parent="1" target="oiRGfsnjQpi-Wwco6OzQ-31" edge="1">
          <mxGeometry width="50" height="50" relative="1" as="geometry">
            <mxPoint x="87" y="390" as="sourcePoint" />
            <mxPoint x="190" y="380" as="targetPoint" />
          </mxGeometry>
        </mxCell>
        <mxCell id="lPI43xpBYYmyzlCxW5A--2" value="Q_reg" style="text;html=1;align=center;verticalAlign=middle;whiteSpace=wrap;rounded=0;" parent="1" vertex="1">
          <mxGeometry x="76" y="360" width="20" height="30" as="geometry" />
        </mxCell>
        <mxCell id="lPI43xpBYYmyzlCxW5A--3" value="Exit" style="text;strokeColor=none;fillColor=none;align=left;verticalAlign=middle;spacingLeft=4;spacingRight=4;overflow=hidden;points=[[0,0.5],[1,0.5]];portConstraint=eastwest;rotatable=0;whiteSpace=wrap;html=1;" parent="1" vertex="1">
          <mxGeometry x="755" y="714" width="35" height="30" as="geometry" />
        </mxCell>
        <mxCell id="lPI43xpBYYmyzlCxW5A--4" value="" style="endArrow=classic;html=1;rounded=0;entryX=0.25;entryY=1;entryDx=0;entryDy=0;" parent="1" target="lPI43xpBYYmyzlCxW5A--5" edge="1">
          <mxGeometry width="50" height="50" relative="1" as="geometry">
            <mxPoint x="840" y="460" as="sourcePoint" />
            <mxPoint x="910" y="460" as="targetPoint" />
          </mxGeometry>
        </mxCell>
        <mxCell id="lPI43xpBYYmyzlCxW5A--5" value="" style="shape=trapezoid;perimeter=trapezoidPerimeter;whiteSpace=wrap;html=1;fixedSize=1;rotation=90;size=13.269999999999982;" parent="1" vertex="1">
          <mxGeometry x="900" y="466.8" width="90" height="32.2" as="geometry" />
        </mxCell>
        <mxCell id="lPI43xpBYYmyzlCxW5A--6" value="" style="endArrow=classic;html=1;rounded=0;entryX=0.853;entryY=1.007;entryDx=0;entryDy=0;entryPerimeter=0;" parent="1" target="lPI43xpBYYmyzlCxW5A--5" edge="1">
          <mxGeometry width="50" height="50" relative="1" as="geometry">
            <mxPoint x="910" y="515" as="sourcePoint" />
            <mxPoint x="920" y="550" as="targetPoint" />
          </mxGeometry>
        </mxCell>
        <mxCell id="lPI43xpBYYmyzlCxW5A--7" value="0" style="text;strokeColor=none;fillColor=none;align=left;verticalAlign=middle;spacingLeft=4;spacingRight=4;overflow=hidden;points=[[0,0.5],[1,0.5]];portConstraint=eastwest;rotatable=0;whiteSpace=wrap;html=1;" parent="1" vertex="1">
          <mxGeometry x="890" y="500" width="20" height="30" as="geometry" />
        </mxCell>
        <mxCell id="lPI43xpBYYmyzlCxW5A--8" value="" style="endArrow=classic;html=1;rounded=0;entryX=1;entryY=0.5;entryDx=0;entryDy=0;" parent="1" target="lPI43xpBYYmyzlCxW5A--5" edge="1">
          <mxGeometry width="50" height="50" relative="1" as="geometry">
            <mxPoint x="945" y="560" as="sourcePoint" />
            <mxPoint x="990" y="570" as="targetPoint" />
          </mxGeometry>
        </mxCell>
        <mxCell id="lPI43xpBYYmyzlCxW5A--9" value="Exit" style="text;strokeColor=none;fillColor=none;align=left;verticalAlign=middle;spacingLeft=4;spacingRight=4;overflow=hidden;points=[[0,0.5],[1,0.5]];portConstraint=eastwest;rotatable=0;whiteSpace=wrap;html=1;" parent="1" vertex="1">
          <mxGeometry x="930" y="560" width="30" height="30" as="geometry" />
        </mxCell>
        <mxCell id="lPI43xpBYYmyzlCxW5A--15" value="" style="endArrow=classic;html=1;rounded=0;exitX=0.5;exitY=0;exitDx=0;exitDy=0;" parent="1" source="lPI43xpBYYmyzlCxW5A--5" edge="1">
          <mxGeometry width="50" height="50" relative="1" as="geometry">
            <mxPoint x="1040" y="610" as="sourcePoint" />
            <mxPoint x="1040" y="483" as="targetPoint" />
          </mxGeometry>
        </mxCell>
        <mxCell id="lPI43xpBYYmyzlCxW5A--46" value="32 bit" style="text;strokeColor=none;fillColor=none;align=left;verticalAlign=middle;spacingLeft=4;spacingRight=4;overflow=hidden;points=[[0,0.5],[1,0.5]];portConstraint=eastwest;rotatable=0;whiteSpace=wrap;html=1;" parent="1" vertex="1">
          <mxGeometry x="990" y="442.75" width="40" height="30" as="geometry" />
        </mxCell>
        <mxCell id="lPI43xpBYYmyzlCxW5A--47" value="" style="endArrow=none;html=1;rounded=0;" parent="1" edge="1">
          <mxGeometry width="50" height="50" relative="1" as="geometry">
            <mxPoint x="980" y="495.25" as="sourcePoint" />
            <mxPoint x="1000" y="470.25" as="targetPoint" />
          </mxGeometry>
        </mxCell>
        <mxCell id="lPI43xpBYYmyzlCxW5A--48" value="" style="endArrow=classic;html=1;rounded=0;" parent="1" edge="1">
          <mxGeometry width="50" height="50" relative="1" as="geometry">
            <mxPoint x="770" y="790" as="sourcePoint" />
            <mxPoint x="770" y="743" as="targetPoint" />
          </mxGeometry>
        </mxCell>
      </root>
    </mxGraphModel>
  </diagram>
  <diagram id="FL2E6ODtrS-aXyYDfNxi" name="Page-2">
    <mxGraphModel dx="700" dy="371" grid="1" gridSize="10" guides="1" tooltips="1" connect="1" arrows="1" fold="1" page="1" pageScale="1" pageWidth="850" pageHeight="1100" math="0" shadow="0">
      <root>
        <mxCell id="0" />
        <mxCell id="1" parent="0" />
        <mxCell id="L7RgQ6xttgjf1Ah26NMg-1" value="Top Module" style="whiteSpace=wrap;html=1;aspect=fixed;" vertex="1" parent="1">
          <mxGeometry x="190" y="140" width="230" height="230" as="geometry" />
        </mxCell>
        <mxCell id="L7RgQ6xttgjf1Ah26NMg-2" value="" style="triangle;whiteSpace=wrap;html=1;" vertex="1" parent="1">
          <mxGeometry x="190" y="310" width="30" height="50" as="geometry" />
        </mxCell>
        <mxCell id="L7RgQ6xttgjf1Ah26NMg-3" value="" style="endArrow=classic;html=1;rounded=0;entryX=0;entryY=0.75;entryDx=0;entryDy=0;" edge="1" parent="1" target="L7RgQ6xttgjf1Ah26NMg-2">
          <mxGeometry width="50" height="50" relative="1" as="geometry">
            <mxPoint x="130" y="348" as="sourcePoint" />
            <mxPoint x="110" y="340" as="targetPoint" />
          </mxGeometry>
        </mxCell>
        <mxCell id="L7RgQ6xttgjf1Ah26NMg-4" value="" style="endArrow=none;html=1;rounded=0;entryX=0;entryY=0.25;entryDx=0;entryDy=0;" edge="1" parent="1" target="L7RgQ6xttgjf1Ah26NMg-2">
          <mxGeometry width="50" height="50" relative="1" as="geometry">
            <mxPoint x="130" y="323" as="sourcePoint" />
            <mxPoint x="130" y="310" as="targetPoint" />
          </mxGeometry>
        </mxCell>
        <mxCell id="L7RgQ6xttgjf1Ah26NMg-5" value="rst" style="text;html=1;align=center;verticalAlign=middle;whiteSpace=wrap;rounded=0;" vertex="1" parent="1">
          <mxGeometry x="80" y="300" width="60" height="30" as="geometry" />
        </mxCell>
        <mxCell id="L7RgQ6xttgjf1Ah26NMg-6" value="clk" style="text;html=1;align=center;verticalAlign=middle;whiteSpace=wrap;rounded=0;" vertex="1" parent="1">
          <mxGeometry x="80" y="330" width="60" height="30" as="geometry" />
        </mxCell>
        <mxCell id="L7RgQ6xttgjf1Ah26NMg-7" value="" style="endArrow=classic;html=1;rounded=0;entryX=0.003;entryY=0.437;entryDx=0;entryDy=0;entryPerimeter=0;" edge="1" parent="1" target="L7RgQ6xttgjf1Ah26NMg-1">
          <mxGeometry width="50" height="50" relative="1" as="geometry">
            <mxPoint x="140" y="240" as="sourcePoint" />
            <mxPoint x="130" y="190" as="targetPoint" />
          </mxGeometry>
        </mxCell>
        <mxCell id="L7RgQ6xttgjf1Ah26NMg-8" value="" style="endArrow=classic;html=1;rounded=0;entryX=-0.004;entryY=0.363;entryDx=0;entryDy=0;entryPerimeter=0;" edge="1" parent="1" target="L7RgQ6xttgjf1Ah26NMg-1">
          <mxGeometry width="50" height="50" relative="1" as="geometry">
            <mxPoint x="140" y="223" as="sourcePoint" />
            <mxPoint x="140" y="180" as="targetPoint" />
          </mxGeometry>
        </mxCell>
        <mxCell id="L7RgQ6xttgjf1Ah26NMg-9" value="Dividend" style="text;strokeColor=none;fillColor=none;align=left;verticalAlign=middle;spacingLeft=4;spacingRight=4;overflow=hidden;points=[[0,0.5],[1,0.5]];portConstraint=eastwest;rotatable=0;whiteSpace=wrap;html=1;" vertex="1" parent="1">
          <mxGeometry x="82" y="224" width="60" height="30" as="geometry" />
        </mxCell>
        <mxCell id="L7RgQ6xttgjf1Ah26NMg-10" value="divider" style="text;strokeColor=none;fillColor=none;align=left;verticalAlign=middle;spacingLeft=4;spacingRight=4;overflow=hidden;points=[[0,0.5],[1,0.5]];portConstraint=eastwest;rotatable=0;whiteSpace=wrap;html=1;" vertex="1" parent="1">
          <mxGeometry x="94" y="207" width="50" height="30" as="geometry" />
        </mxCell>
        <mxCell id="L7RgQ6xttgjf1Ah26NMg-11" value="" style="endArrow=classic;html=1;rounded=0;entryX=-0.009;entryY=0.07;entryDx=0;entryDy=0;entryPerimeter=0;" edge="1" parent="1">
          <mxGeometry width="50" height="50" relative="1" as="geometry">
            <mxPoint x="143" y="156" as="sourcePoint" />
            <mxPoint x="190.92999999999995" y="156.10000000000002" as="targetPoint" />
          </mxGeometry>
        </mxCell>
        <mxCell id="L7RgQ6xttgjf1Ah26NMg-12" value="src_valid" style="text;strokeColor=none;fillColor=none;align=left;verticalAlign=middle;spacingLeft=4;spacingRight=4;overflow=hidden;points=[[0,0.5],[1,0.5]];portConstraint=eastwest;rotatable=0;whiteSpace=wrap;html=1;" vertex="1" parent="1">
          <mxGeometry x="79" y="140" width="80" height="30" as="geometry" />
        </mxCell>
        <mxCell id="L7RgQ6xttgjf1Ah26NMg-13" value="" style="endArrow=classic;html=1;rounded=0;entryX=-0.009;entryY=0.07;entryDx=0;entryDy=0;entryPerimeter=0;" edge="1" parent="1">
          <mxGeometry width="50" height="50" relative="1" as="geometry">
            <mxPoint x="142" y="182" as="sourcePoint" />
            <mxPoint x="189.92999999999995" y="182.10000000000002" as="targetPoint" />
          </mxGeometry>
        </mxCell>
        <mxCell id="L7RgQ6xttgjf1Ah26NMg-14" value="dd_ready" style="text;strokeColor=none;fillColor=none;align=left;verticalAlign=middle;spacingLeft=4;spacingRight=4;overflow=hidden;points=[[0,0.5],[1,0.5]];portConstraint=eastwest;rotatable=0;whiteSpace=wrap;html=1;" vertex="1" parent="1">
          <mxGeometry x="82" y="165" width="80" height="30" as="geometry" />
        </mxCell>
        <mxCell id="L7RgQ6xttgjf1Ah26NMg-15" value="" style="endArrow=classic;html=1;rounded=0;exitX=0.998;exitY=0.105;exitDx=0;exitDy=0;exitPerimeter=0;" edge="1" parent="1" source="L7RgQ6xttgjf1Ah26NMg-1">
          <mxGeometry width="50" height="50" relative="1" as="geometry">
            <mxPoint x="450" y="195" as="sourcePoint" />
            <mxPoint x="510" y="164" as="targetPoint" />
          </mxGeometry>
        </mxCell>
        <mxCell id="L7RgQ6xttgjf1Ah26NMg-16" value="" style="endArrow=classic;html=1;rounded=0;exitX=0.998;exitY=0.105;exitDx=0;exitDy=0;exitPerimeter=0;" edge="1" parent="1">
          <mxGeometry width="50" height="50" relative="1" as="geometry">
            <mxPoint x="420" y="187" as="sourcePoint" />
            <mxPoint x="510" y="187" as="targetPoint" />
          </mxGeometry>
        </mxCell>
        <mxCell id="L7RgQ6xttgjf1Ah26NMg-17" value="" style="endArrow=classic;html=1;rounded=0;exitX=0.998;exitY=0.105;exitDx=0;exitDy=0;exitPerimeter=0;" edge="1" parent="1">
          <mxGeometry width="50" height="50" relative="1" as="geometry">
            <mxPoint x="420" y="214" as="sourcePoint" />
            <mxPoint x="510" y="214" as="targetPoint" />
          </mxGeometry>
        </mxCell>
        <mxCell id="L7RgQ6xttgjf1Ah26NMg-18" value="" style="endArrow=classic;html=1;rounded=0;exitX=0.998;exitY=0.105;exitDx=0;exitDy=0;exitPerimeter=0;" edge="1" parent="1">
          <mxGeometry width="50" height="50" relative="1" as="geometry">
            <mxPoint x="420" y="241" as="sourcePoint" />
            <mxPoint x="510" y="241" as="targetPoint" />
          </mxGeometry>
        </mxCell>
        <mxCell id="L7RgQ6xttgjf1Ah26NMg-19" value="src_ready" style="text;html=1;align=center;verticalAlign=middle;whiteSpace=wrap;rounded=0;" vertex="1" parent="1">
          <mxGeometry x="510" y="150" width="60" height="30" as="geometry" />
        </mxCell>
        <mxCell id="L7RgQ6xttgjf1Ah26NMg-20" value="dd_valid" style="text;html=1;align=center;verticalAlign=middle;whiteSpace=wrap;rounded=0;" vertex="1" parent="1">
          <mxGeometry x="510" y="170" width="60" height="30" as="geometry" />
        </mxCell>
        <mxCell id="L7RgQ6xttgjf1Ah26NMg-21" value="remainder" style="text;html=1;align=center;verticalAlign=middle;whiteSpace=wrap;rounded=0;" vertex="1" parent="1">
          <mxGeometry x="509" y="198" width="60" height="30" as="geometry" />
        </mxCell>
        <mxCell id="L7RgQ6xttgjf1Ah26NMg-22" value="qoutient" style="text;html=1;align=center;verticalAlign=middle;whiteSpace=wrap;rounded=0;" vertex="1" parent="1">
          <mxGeometry x="510" y="224" width="60" height="30" as="geometry" />
        </mxCell>
      </root>
    </mxGraphModel>
  </diagram>
  <diagram id="yrd5Ie_pZZadAPZnwKde" name="Page-3">
    <mxGraphModel dx="750" dy="398" grid="1" gridSize="10" guides="1" tooltips="1" connect="1" arrows="1" fold="1" page="1" pageScale="1" pageWidth="850" pageHeight="1100" math="0" shadow="0">
      <root>
        <mxCell id="0" />
        <mxCell id="1" parent="0" />
        <mxCell id="NykGNW0D-AKDlV6hi6VE-1" value="Datapath" style="rounded=0;whiteSpace=wrap;html=1;" vertex="1" parent="1">
          <mxGeometry x="140" y="100" width="120" height="260" as="geometry" />
        </mxCell>
        <mxCell id="NykGNW0D-AKDlV6hi6VE-2" value="Control_unit" style="rounded=0;whiteSpace=wrap;html=1;" vertex="1" parent="1">
          <mxGeometry x="365" y="100" width="120" height="260" as="geometry" />
        </mxCell>
        <mxCell id="NykGNW0D-AKDlV6hi6VE-3" value="" style="endArrow=classic;html=1;rounded=0;exitX=1.01;exitY=0.152;exitDx=0;exitDy=0;exitPerimeter=0;entryX=0.002;entryY=0.147;entryDx=0;entryDy=0;entryPerimeter=0;" edge="1" parent="1" source="NykGNW0D-AKDlV6hi6VE-1" target="NykGNW0D-AKDlV6hi6VE-2">
          <mxGeometry width="50" height="50" relative="1" as="geometry">
            <mxPoint x="290" y="210" as="sourcePoint" />
            <mxPoint x="340" y="160" as="targetPoint" />
          </mxGeometry>
        </mxCell>
        <mxCell id="NykGNW0D-AKDlV6hi6VE-5" value="" style="endArrow=classic;html=1;rounded=0;entryX=0.989;entryY=0.903;entryDx=0;entryDy=0;entryPerimeter=0;exitX=0.008;exitY=0.899;exitDx=0;exitDy=0;exitPerimeter=0;" edge="1" parent="1" source="NykGNW0D-AKDlV6hi6VE-2" target="NykGNW0D-AKDlV6hi6VE-1">
          <mxGeometry width="50" height="50" relative="1" as="geometry">
            <mxPoint x="400" y="380" as="sourcePoint" />
            <mxPoint x="450" y="330" as="targetPoint" />
          </mxGeometry>
        </mxCell>
        <mxCell id="NykGNW0D-AKDlV6hi6VE-6" value="selec_A" style="text;html=1;align=center;verticalAlign=middle;whiteSpace=wrap;rounded=0;" vertex="1" parent="1">
          <mxGeometry x="280" y="310" width="60" height="30" as="geometry" />
        </mxCell>
        <mxCell id="NykGNW0D-AKDlV6hi6VE-10" value="" style="endArrow=classic;html=1;rounded=0;entryX=1.01;entryY=0.821;entryDx=0;entryDy=0;entryPerimeter=0;" edge="1" parent="1" target="NykGNW0D-AKDlV6hi6VE-1">
          <mxGeometry width="50" height="50" relative="1" as="geometry">
            <mxPoint x="365" y="313" as="sourcePoint" />
            <mxPoint x="300" y="240" as="targetPoint" />
          </mxGeometry>
        </mxCell>
        <mxCell id="NykGNW0D-AKDlV6hi6VE-11" value="enable_reg" style="text;html=1;align=center;verticalAlign=middle;whiteSpace=wrap;rounded=0;" vertex="1" parent="1">
          <mxGeometry x="280" y="290" width="60" height="30" as="geometry" />
        </mxCell>
        <mxCell id="3cD-p6To_14TqwMf-I6T-1" value="done" style="text;html=1;align=center;verticalAlign=middle;whiteSpace=wrap;rounded=0;" vertex="1" parent="1">
          <mxGeometry x="270" y="110" width="60" height="30" as="geometry" />
        </mxCell>
        <mxCell id="3cD-p6To_14TqwMf-I6T-3" value="" style="endArrow=classic;html=1;rounded=0;exitX=1.004;exitY=0.233;exitDx=0;exitDy=0;exitPerimeter=0;entryX=0.005;entryY=0.235;entryDx=0;entryDy=0;entryPerimeter=0;" edge="1" parent="1" source="NykGNW0D-AKDlV6hi6VE-1" target="NykGNW0D-AKDlV6hi6VE-2">
          <mxGeometry width="50" height="50" relative="1" as="geometry">
            <mxPoint x="330" y="200" as="sourcePoint" />
            <mxPoint x="380" y="150" as="targetPoint" />
          </mxGeometry>
        </mxCell>
        <mxCell id="3cD-p6To_14TqwMf-I6T-4" value="temp" style="text;html=1;align=center;verticalAlign=middle;whiteSpace=wrap;rounded=0;" vertex="1" parent="1">
          <mxGeometry x="270" y="160" width="60" height="30" as="geometry" />
        </mxCell>
      </root>
    </mxGraphModel>
  </diagram>
  <diagram id="PggKPfYG1g8a6IgftrDN" name="Page-4">
    <mxGraphModel dx="200" dy="557" grid="1" gridSize="10" guides="1" tooltips="1" connect="1" arrows="1" fold="1" page="1" pageScale="1" pageWidth="850" pageHeight="1100" math="0" shadow="0">
      <root>
        <mxCell id="0" />
        <mxCell id="1" parent="0" />
        <mxCell id="YHW81KUQNHTIBlOyQXjV-1" value="" style="ellipse;whiteSpace=wrap;html=1;aspect=fixed;" vertex="1" parent="1">
          <mxGeometry x="1376" y="290" width="80" height="80" as="geometry" />
        </mxCell>
        <mxCell id="YHW81KUQNHTIBlOyQXjV-2" value="" style="ellipse;whiteSpace=wrap;html=1;aspect=fixed;" vertex="1" parent="1">
          <mxGeometry x="1476" y="467" width="80" height="80" as="geometry" />
        </mxCell>
        <mxCell id="YHW81KUQNHTIBlOyQXjV-3" value="" style="ellipse;whiteSpace=wrap;html=1;aspect=fixed;" vertex="1" parent="1">
          <mxGeometry x="1266" y="477" width="80" height="80" as="geometry" />
        </mxCell>
        <mxCell id="YHW81KUQNHTIBlOyQXjV-4" value="" style="curved=1;endArrow=classic;html=1;rounded=0;exitX=0.975;exitY=0.67;exitDx=0;exitDy=0;exitPerimeter=0;entryX=0.5;entryY=0;entryDx=0;entryDy=0;" edge="1" parent="1" source="YHW81KUQNHTIBlOyQXjV-1" target="YHW81KUQNHTIBlOyQXjV-2">
          <mxGeometry width="50" height="50" relative="1" as="geometry">
            <mxPoint x="1516" y="383" as="sourcePoint" />
            <mxPoint x="1566" y="333" as="targetPoint" />
            <Array as="points">
              <mxPoint x="1506" y="367" />
            </Array>
          </mxGeometry>
        </mxCell>
        <mxCell id="YHW81KUQNHTIBlOyQXjV-5" value="" style="curved=1;endArrow=classic;html=1;rounded=0;entryX=0.69;entryY=0.953;entryDx=0;entryDy=0;entryPerimeter=0;" edge="1" parent="1" source="YHW81KUQNHTIBlOyQXjV-2" target="YHW81KUQNHTIBlOyQXjV-3">
          <mxGeometry width="50" height="50" relative="1" as="geometry">
            <mxPoint x="1376" y="557" as="sourcePoint" />
            <mxPoint x="1426" y="507" as="targetPoint" />
            <Array as="points">
              <mxPoint x="1456" y="567" />
              <mxPoint x="1396" y="587" />
              <mxPoint x="1346" y="567" />
            </Array>
          </mxGeometry>
        </mxCell>
        <mxCell id="YHW81KUQNHTIBlOyQXjV-6" value="" style="curved=1;endArrow=classic;html=1;rounded=0;entryX=0;entryY=0.5;entryDx=0;entryDy=0;exitX=0;exitY=0;exitDx=0;exitDy=0;" edge="1" parent="1" source="YHW81KUQNHTIBlOyQXjV-3" target="YHW81KUQNHTIBlOyQXjV-1">
          <mxGeometry width="50" height="50" relative="1" as="geometry">
            <mxPoint x="1236" y="457" as="sourcePoint" />
            <mxPoint x="1326" y="357" as="targetPoint" />
            <Array as="points">
              <mxPoint x="1278" y="427" />
              <mxPoint x="1306" y="367" />
            </Array>
          </mxGeometry>
        </mxCell>
        <mxCell id="YHW81KUQNHTIBlOyQXjV-7" value="" style="curved=1;endArrow=classic;html=1;rounded=0;entryX=0;entryY=0.5;entryDx=0;entryDy=0;" edge="1" parent="1" source="YHW81KUQNHTIBlOyQXjV-3" target="YHW81KUQNHTIBlOyQXjV-3">
          <mxGeometry width="50" height="50" relative="1" as="geometry">
            <mxPoint x="1226" y="607" as="sourcePoint" />
            <mxPoint x="1276" y="557" as="targetPoint" />
            <Array as="points">
              <mxPoint x="1256" y="580" />
              <mxPoint x="1236" y="557" />
            </Array>
          </mxGeometry>
        </mxCell>
        <mxCell id="YHW81KUQNHTIBlOyQXjV-8" value="" style="curved=1;endArrow=classic;html=1;rounded=0;entryX=0.42;entryY=0.023;entryDx=0;entryDy=0;entryPerimeter=0;exitX=0.073;exitY=0.208;exitDx=0;exitDy=0;exitPerimeter=0;" edge="1" parent="1" source="YHW81KUQNHTIBlOyQXjV-1" target="YHW81KUQNHTIBlOyQXjV-1">
          <mxGeometry width="50" height="50" relative="1" as="geometry">
            <mxPoint x="1376" y="300" as="sourcePoint" />
            <mxPoint x="1416" y="260" as="targetPoint" />
            <Array as="points">
              <mxPoint x="1356" y="300" />
              <mxPoint x="1386" y="260" />
            </Array>
          </mxGeometry>
        </mxCell>
        <mxCell id="YHW81KUQNHTIBlOyQXjV-9" value="src-valid=0" style="text;html=1;align=center;verticalAlign=middle;whiteSpace=wrap;rounded=0;" vertex="1" parent="1">
          <mxGeometry x="1346" y="240" width="70" height="30" as="geometry" />
        </mxCell>
        <mxCell id="YHW81KUQNHTIBlOyQXjV-10" value="" style="curved=1;endArrow=classic;html=1;rounded=0;entryX=0.5;entryY=1;entryDx=0;entryDy=0;" edge="1" parent="1" source="YHW81KUQNHTIBlOyQXjV-2" target="YHW81KUQNHTIBlOyQXjV-1">
          <mxGeometry width="50" height="50" relative="1" as="geometry">
            <mxPoint x="1416" y="460" as="sourcePoint" />
            <mxPoint x="1466" y="410" as="targetPoint" />
            <Array as="points">
              <mxPoint x="1466" y="460" />
              <mxPoint x="1416" y="410" />
            </Array>
          </mxGeometry>
        </mxCell>
        <mxCell id="YHW81KUQNHTIBlOyQXjV-11" value="src_ready=1&lt;div style=&quot;font-size: 9px;&quot;&gt;done=0&lt;/div&gt;&lt;div style=&quot;font-size: 9px;&quot;&gt;enable_count=0&lt;/div&gt;&lt;div style=&quot;font-size: 9px;&quot;&gt;enable_reg=0&lt;/div&gt;" style="text;html=1;align=center;verticalAlign=middle;whiteSpace=wrap;rounded=0;fontSize=9;" vertex="1" parent="1">
          <mxGeometry x="1386" y="325" width="60" height="30" as="geometry" />
        </mxCell>
        <mxCell id="YHW81KUQNHTIBlOyQXjV-12" value="" style="curved=1;endArrow=classic;html=1;rounded=0;entryX=1;entryY=0;entryDx=0;entryDy=0;" edge="1" parent="1" target="YHW81KUQNHTIBlOyQXjV-1">
          <mxGeometry width="50" height="50" relative="1" as="geometry">
            <mxPoint x="1466" y="200" as="sourcePoint" />
            <mxPoint x="1516" y="160" as="targetPoint" />
            <Array as="points">
              <mxPoint x="1426" y="230" />
              <mxPoint x="1444" y="250" />
              <mxPoint x="1476" y="250" />
            </Array>
          </mxGeometry>
        </mxCell>
        <mxCell id="YHW81KUQNHTIBlOyQXjV-13" value="rst" style="text;html=1;align=center;verticalAlign=middle;whiteSpace=wrap;rounded=0;" vertex="1" parent="1">
          <mxGeometry x="1456" y="170" width="60" height="30" as="geometry" />
        </mxCell>
        <mxCell id="YHW81KUQNHTIBlOyQXjV-14" value="Src-valid" style="text;html=1;align=center;verticalAlign=middle;whiteSpace=wrap;rounded=0;" vertex="1" parent="1">
          <mxGeometry x="1504" y="390" width="80" height="30" as="geometry" />
        </mxCell>
        <mxCell id="YHW81KUQNHTIBlOyQXjV-15" value="Src-ready=0&lt;div&gt;dd-valid=0&lt;/div&gt;" style="text;html=1;align=center;verticalAlign=middle;whiteSpace=wrap;rounded=0;" vertex="1" parent="1">
          <mxGeometry x="1534" y="492" width="120" height="30" as="geometry" />
        </mxCell>
        <mxCell id="YHW81KUQNHTIBlOyQXjV-16" value="dd-ready=1" style="text;html=1;align=center;verticalAlign=middle;whiteSpace=wrap;rounded=0;" vertex="1" parent="1">
          <mxGeometry x="1356" y="410" width="80" height="30" as="geometry" />
        </mxCell>
        <mxCell id="YHW81KUQNHTIBlOyQXjV-17" value="dd-valid=1" style="text;html=1;align=center;verticalAlign=middle;whiteSpace=wrap;rounded=0;" vertex="1" parent="1">
          <mxGeometry x="1356" y="430" width="80" height="30" as="geometry" />
        </mxCell>
        <mxCell id="YHW81KUQNHTIBlOyQXjV-18" value="Src-ready=1&lt;div&gt;dd-valid=0&lt;/div&gt;" style="text;html=1;align=center;verticalAlign=middle;whiteSpace=wrap;rounded=0;" vertex="1" parent="1">
          <mxGeometry x="1446" y="300" width="93" height="30" as="geometry" />
        </mxCell>
        <mxCell id="YHW81KUQNHTIBlOyQXjV-19" value="IDLE" style="text;html=1;align=center;verticalAlign=middle;whiteSpace=wrap;rounded=0;fontSize=20;" vertex="1" parent="1">
          <mxGeometry x="1386" y="295" width="60" height="30" as="geometry" />
        </mxCell>
        <mxCell id="YHW81KUQNHTIBlOyQXjV-20" value="CALC" style="text;html=1;align=center;verticalAlign=middle;whiteSpace=wrap;rounded=0;fontSize=20;" vertex="1" parent="1">
          <mxGeometry x="1486" y="470" width="60" height="30" as="geometry" />
        </mxCell>
        <mxCell id="YHW81KUQNHTIBlOyQXjV-21" value="src_ready=0&lt;div style=&quot;font-size: 9px;&quot;&gt;done=0&lt;/div&gt;&lt;div style=&quot;font-size: 9px;&quot;&gt;enable_count=1&lt;/div&gt;&lt;div style=&quot;font-size: 9px;&quot;&gt;enable_reg=1&lt;/div&gt;" style="text;html=1;align=center;verticalAlign=middle;whiteSpace=wrap;rounded=0;fontSize=9;" vertex="1" parent="1">
          <mxGeometry x="1486" y="502" width="60" height="30" as="geometry" />
        </mxCell>
        <mxCell id="YHW81KUQNHTIBlOyQXjV-22" value="Finish" style="text;html=1;align=center;verticalAlign=middle;whiteSpace=wrap;rounded=0;fontSize=20;" vertex="1" parent="1">
          <mxGeometry x="1275.5" y="479" width="60" height="30" as="geometry" />
        </mxCell>
        <mxCell id="YHW81KUQNHTIBlOyQXjV-23" value="" style="curved=1;endArrow=classic;html=1;rounded=0;exitX=0.688;exitY=0.943;exitDx=0;exitDy=0;exitPerimeter=0;entryX=0.368;entryY=0.99;entryDx=0;entryDy=0;entryPerimeter=0;" edge="1" parent="1">
          <mxGeometry width="50" height="50" relative="1" as="geometry">
            <mxPoint x="1531.04" y="543.44" as="sourcePoint" />
            <mxPoint x="1505.44" y="547.1999999999998" as="targetPoint" />
            <Array as="points">
              <mxPoint x="1536" y="581" />
              <mxPoint x="1516" y="581" />
            </Array>
          </mxGeometry>
        </mxCell>
        <mxCell id="YHW81KUQNHTIBlOyQXjV-24" value="dd-valid=0" style="text;html=1;align=center;verticalAlign=middle;whiteSpace=wrap;rounded=0;" vertex="1" parent="1">
          <mxGeometry x="1496" y="580" width="80" height="30" as="geometry" />
        </mxCell>
        <mxCell id="YHW81KUQNHTIBlOyQXjV-25" value="dd-valid=1" style="text;html=1;align=center;verticalAlign=middle;whiteSpace=wrap;rounded=0;" vertex="1" parent="1">
          <mxGeometry x="1363" y="557" width="80" height="30" as="geometry" />
        </mxCell>
        <mxCell id="YHW81KUQNHTIBlOyQXjV-26" value="dd-ready=0" style="text;html=1;align=center;verticalAlign=middle;whiteSpace=wrap;rounded=0;" vertex="1" parent="1">
          <mxGeometry x="1366" y="537" width="80" height="30" as="geometry" />
        </mxCell>
        <mxCell id="YHW81KUQNHTIBlOyQXjV-27" value="src_ready=0&lt;div style=&quot;font-size: 9px;&quot;&gt;done=1&lt;/div&gt;&lt;div style=&quot;font-size: 9px;&quot;&gt;enable_count=0&lt;/div&gt;&lt;div style=&quot;font-size: 9px;&quot;&gt;&lt;span style=&quot;background-color: initial;&quot;&gt;enable_reg=0&lt;/span&gt;&lt;/div&gt;" style="text;html=1;align=center;verticalAlign=middle;whiteSpace=wrap;rounded=0;fontSize=9;" vertex="1" parent="1">
          <mxGeometry x="1276" y="510" width="60" height="30" as="geometry" />
        </mxCell>
        <mxCell id="YHW81KUQNHTIBlOyQXjV-28" value="Src-ready=0&lt;div&gt;dd-valid=1&lt;/div&gt;" style="text;html=1;align=center;verticalAlign=middle;whiteSpace=wrap;rounded=0;" vertex="1" parent="1">
          <mxGeometry x="1170" y="482" width="120" height="30" as="geometry" />
        </mxCell>
        <mxCell id="YHW81KUQNHTIBlOyQXjV-29" value="dd-ready=0" style="text;html=1;align=center;verticalAlign=middle;whiteSpace=wrap;rounded=0;" vertex="1" parent="1">
          <mxGeometry x="1206" y="567" width="80" height="30" as="geometry" />
        </mxCell>
        <mxCell id="YHW81KUQNHTIBlOyQXjV-30" value="dd-ready=1" style="text;html=1;align=center;verticalAlign=middle;whiteSpace=wrap;rounded=0;" vertex="1" parent="1">
          <mxGeometry x="1216" y="370" width="80" height="30" as="geometry" />
        </mxCell>
      </root>
    </mxGraphModel>
  </diagram>
</mxfile>
